<?xml version="1.0" encoding="UTF-8"?>
<svg version="1.1" xmlns="http://www.w3.org/2000/svg" width="560" height="612">
<path d="M0 0 C3.47899445 1.15966482 3.68590696 1.67805807 5.42578125 4.734375 C5.88533203 5.52545654 6.34488281 6.31653809 6.81835938 7.1315918 C7.55795898 8.42770386 7.55795898 8.42770386 8.3125 9.75 C25.1444077 38.50796807 45.24083754 65.28216677 65.45556641 91.72119141 C69.33665953 96.80142941 73.17070663 101.90616989 76.90234375 107.09765625 C79.20493853 110.28355554 81.53770821 113.44602834 83.8737793 116.60742188 C86.92210785 120.73368274 89.96179564 124.86628127 93 129 C93.53786133 129.73105957 94.07572266 130.46211914 94.62988281 131.21533203 C106.93628418 147.9782936 118.74469789 165.12001957 129.875 182.6875 C130.35654541 183.44667725 130.83809082 184.20585449 131.33422852 184.98803711 C133.78386726 188.9000804 136.01435642 192.8248885 138 197 C134.10207994 198.29930669 131.42360167 197.23231439 127.625 196.125 C109.78487331 191.07262037 90.67251317 191.13180193 73 197 C72.05471436 197.30550781 72.05471436 197.30550781 71.09033203 197.6171875 C45.45400978 206.16043092 25.44608106 224.56438613 13.12329102 248.36352539 C2.536069 269.79688958 -0.23624446 292.85106348 -1.22949219 316.47119141 C-2.54317443 344.63014779 -13.73957265 362.19460529 -32.9453125 382.046875 C-47.79951329 397.54268394 -59.66330071 414.97501384 -65 436 C-65.22558594 436.86625 -65.45117188 437.7325 -65.68359375 438.625 C-71.45382026 464.73030064 -62.43275523 488.85630653 -49 511 C-52.99461984 512.33153995 -55.43883999 511.02522821 -59.1875 509.5625 C-59.89293945 509.29171631 -60.59837891 509.02093262 -61.32519531 508.74194336 C-78.15793253 502.11521943 -93.78320079 493.16761975 -108 482 C-108.85851562 481.34773438 -109.71703125 480.69546875 -110.6015625 480.0234375 C-125.4650666 468.39308233 -138.23986768 454.46469923 -149 439 C-149.66588135 438.04456299 -149.66588135 438.04456299 -150.34521484 437.06982422 C-176.51090514 398.85505612 -188.91204464 349.9050561 -181 304 C-171.39987841 254.19637221 -145.59294814 209.66122161 -117.8125 167.9375 C-117.0037291 166.72182846 -117.0037291 166.72182846 -116.17861938 165.4815979 C-108.38318492 153.79119143 -100.29515568 142.34036593 -92 131 C-91.31446045 130.05809814 -90.6289209 129.11619629 -89.92260742 128.14575195 C-88.35022101 125.98851312 -86.77133235 123.8363447 -85.1875 121.6875 C-84.62039307 120.91736572 -84.05328613 120.14723145 -83.46899414 119.35375977 C-79.02038426 113.33384358 -74.48847183 107.38023958 -69.9375 101.4375 C-64.44138417 94.25896679 -59.05658856 87.01593141 -53.79272461 79.66552734 C-50.49492328 75.06112684 -47.15246468 70.4941588 -43.77319336 65.94921875 C-28.00479339 44.72494806 -13.67609244 22.61713547 0 0 Z M-106 228 C-105 230 -105 230 -105 230 Z M-107 230 C-132.68001607 258.78698098 -145.86759235 296.71861126 -146 335 C-146.00402832 335.70044434 -146.00805664 336.40088867 -146.01220703 337.12255859 C-145.93542226 355.46508439 -140.84401631 373.53341614 -133 390 C-132.51660156 391.02480469 -132.03320312 392.04960937 -131.53515625 393.10546875 C-128.10275694 399.84666296 -122.95129488 409.52435256 -116 413 C-116.53955841 405.78491458 -117.48627887 398.78460622 -118.875 391.6875 C-122.02909221 374.88824873 -124.44457853 358.09656709 -125 341 C-125.04125 339.90558594 -125.0825 338.81117188 -125.125 337.68359375 C-125.79116552 303.08462193 -117.64910871 267.81412109 -106.53125 235.22265625 C-105.75703479 232.84872445 -105.75703479 232.84872445 -107 230 Z " fill="#538ABF" transform="translate(298,53)"/>
<path d="M0 0 C1.57989557 1.52383476 3.14338904 3.06491548 4.6875 4.625 C5.37328125 5.27726562 6.0590625 5.92953125 6.765625 6.6015625 C28.95087356 29.22352855 35.1402269 68.55357723 35 98.75 C34.99817719 99.56548309 34.99635437 100.38096619 34.99447632 101.22116089 C34.94797138 113.58829326 34.39108071 125.5174289 31.6875 137.625 C31.52121094 138.4200293 31.35492188 139.21505859 31.18359375 140.03417969 C27.11249049 159.25129489 20.0288955 177.37443467 10.6875 194.625 C10.3575 195.23956055 10.0275 195.85412109 9.6875 196.48730469 C5.27200656 204.64993074 0.36262891 212.27743625 -5.3125 219.625 C-5.93769531 220.44355469 -6.56289063 221.26210938 -7.20703125 222.10546875 C-23.56755767 243.0642694 -43.08980471 259.71287043 -66.3125 272.625 C-66.9317334 272.97159668 -67.5509668 273.31819336 -68.18896484 273.67529297 C-91.8891845 286.74386786 -121.6110661 295.81858056 -148.54614258 288.52539062 C-165.16566603 283.52478929 -178.87784423 273.27298905 -188.3125 258.625 C-197.02606822 242.30938934 -199.26747445 225.55372671 -194.75 207.625 C-190.78060167 194.98860605 -184.15700809 184.43149193 -175.3125 174.625 C-174.4565625 173.67238281 -173.600625 172.71976563 -172.71875 171.73828125 C-168.9693626 167.60416701 -165.17982259 163.51303715 -161.296875 159.50390625 C-139.41942082 136.73242149 -132.4253013 112.8035393 -130.73120117 81.80639648 C-129.07570954 52.33425275 -122.7289791 26.080137 -101.3125 4.625 C-100.70148438 4.00238281 -100.09046875 3.37976563 -99.4609375 2.73828125 C-72.75331971 -22.54871857 -27.8168955 -24.26580246 0 0 Z M-51.3125 17.625 C-71.59185403 31.04389171 -82.53590135 47.48565368 -87.46533203 71.33911133 C-89.20180488 80.9868017 -88.88034562 90.85625474 -88.875 100.625 C-88.92396008 142.37815542 -99.76557275 173.761381 -128.59472656 204.56616211 C-131.00505773 207.14796709 -133.25938356 209.7492773 -135.3125 212.625 C-122.26343097 209.25024077 -111.2764121 200.39650951 -101.3125 191.625 C-100.69117188 191.08746094 -100.06984375 190.54992187 -99.4296875 189.99609375 C-79.07446147 171.10833751 -70.26050575 143.00082611 -69.1640625 115.96484375 C-69.07985647 108.09158011 -69.51486566 100.25307254 -69.94970703 92.39575195 C-71.4156982 65.7671855 -67.39598918 39.4017748 -49.3125 18.625 C-50.3025 18.13 -50.3025 18.13 -51.3125 17.625 Z " fill="#3F73A4" transform="translate(448.3125,283.375)"/>
<path d="M0 0 C0.66 0.33 1.32 0.66 2 1 C0.21242597 4.85385584 -2.07761323 8.37504894 -4.375 11.9375 C-4.76171875 12.54529297 -5.1484375 13.15308594 -5.546875 13.77929688 C-7.84798165 17.35836712 -10.27547741 20.72186438 -13 24 C-13.66 23.67 -14.32 23.34 -15 23 C-11.35459694 16.69164293 -7.51018641 10.72569764 -3 5 C-18.71066337 12.37043467 -28.76071811 25.49692297 -34.82397461 41.52685547 C-39.93358111 56.61700744 -40.57115154 71.18993626 -40.5625 87 C-40.60777178 125.60777178 -40.60777178 125.60777178 -46 131 C-46.20611519 125.9501779 -45.77610949 121.31952396 -44.98828125 116.32421875 C-43.82785574 108.27373162 -43.86887033 100.3697832 -44.02215576 92.25424194 C-44.5257943 62.55290207 -41.50162168 35.64379909 -20.19921875 13.09375 C-16.0843124 9.21675044 -11.48709628 6.33467754 -6.625 3.5 C-6.00544434 3.13696777 -5.38588867 2.77393555 -4.74755859 2.39990234 C-3.20111756 1.53224105 -1.60329809 0.75746367 0 0 Z " fill="#366998" transform="translate(401,297)"/>
<path d="M0 0 C3.52088089 1.17362696 3.85359125 1.89833391 5.734375 4.96484375 C6.22550781 5.76470703 6.71664062 6.56457031 7.22265625 7.38867188 C7.72667969 8.22978516 8.23070312 9.07089844 8.75 9.9375 C9.26949219 10.77474609 9.78898437 11.61199219 10.32421875 12.47460938 C13.1491844 17.1316814 13.1491844 17.1316814 14 19 C13.67 19.66 13.34 20.32 13 21 C11.83082031 20.72285156 10.66164063 20.44570312 9.45703125 20.16015625 C7.90886477 19.79422599 6.36068709 19.42834307 4.8125 19.0625 C4.04357422 18.88009766 3.27464844 18.69769531 2.48242188 18.50976562 C1.73154297 18.33251953 0.98066406 18.15527344 0.20703125 17.97265625 C-0.4789917 17.81031494 -1.16501465 17.64797363 -1.87182617 17.48071289 C-17.88804796 13.86296129 -35.43544983 14.83175582 -51 20 C-51.63019043 20.20367187 -52.26038086 20.40734375 -52.90966797 20.6171875 C-69.87950149 26.27234416 -86.14169886 36.67933893 -97.234375 50.85546875 C-97.81703125 51.56316406 -98.3996875 52.27085937 -99 53 C-99.66 53 -100.32 53 -101 53 C-96.90969714 44.31046258 -89.46239204 38.75524208 -82 33 C-81.18273437 32.36707031 -80.36546875 31.73414063 -79.5234375 31.08203125 C-73.11697068 26.35543602 -66.29001348 23.14490027 -59 20 C-57.824375 19.443125 -56.64875 18.88625 -55.4375 18.3125 C-37.27877596 11.379169 -16.92848304 11.12000797 1.8828125 15.34375 C5.12144693 16.13734032 5.12144693 16.13734032 9 16 C8.02546875 14.39318359 8.02546875 14.39318359 7.03125 12.75390625 C6.18738475 11.35684044 5.343641 9.95970124 4.5 8.5625 C3.85611328 7.50192383 3.85611328 7.50192383 3.19921875 6.41992188 C0 1.11328125 0 1.11328125 0 0 Z " fill="#4980AF" transform="translate(422,230)"/>
<path d="M0 0 C1.57989557 1.52383476 3.14338904 3.06491548 4.6875 4.625 C5.37328125 5.27726562 6.0590625 5.92953125 6.765625 6.6015625 C16.07472122 16.09390864 23.26027482 30.82214731 26.6875 43.625 C26.3575 44.615 26.0275 45.605 25.6875 46.625 C22.80364196 43.74114196 21.93123604 40.13825343 20.5625 36.375 C13.40774708 17.41566269 3.19461827 2.0215671 -15.5625 -7.1875 C-29.95188266 -13.10290767 -43.92440957 -14.12817775 -59.3125 -14.375 C-59.3125 -15.035 -59.3125 -15.695 -59.3125 -16.375 C-38.77470193 -20.22583714 -15.65842294 -13.65947533 0 0 Z " fill="#336699" transform="translate(448.3125,283.375)"/>
<path d="M0 0 C0.66 0 1.32 0 2 0 C1.4121184 3.9217891 0.13992303 7.32032316 -1.32373047 10.97412109 C-11.55747474 36.80933529 -12.80441094 62.60071391 -11 90 C-11.66 90 -12.32 90 -13 90 C-17.60854039 59.79760137 -14.71143808 27.314695 0 0 Z " fill="#4785B2" transform="translate(165,319)"/>
<path d="M0 0 C2.69841529 2.69841529 3.13054463 5.64991137 4 9.25 C4.165 9.88679688 4.33 10.52359375 4.5 11.1796875 C7.69104779 24.09345903 8.36797765 36.8985558 8.3125 50.125 C8.31200653 50.93450104 8.31151306 51.74400208 8.31100464 52.57803345 C8.25520155 82.4895969 8.25520155 82.4895969 4 91 C3.34 91 2.68 91 2 91 C2.48828125 86.60546875 2.9765625 82.2109375 3.46484375 77.81640625 C3.59669067 76.60827271 3.59669067 76.60827271 3.73120117 75.37573242 C3.9007747 73.87698584 4.08169606 72.37943928 4.27856445 70.8840332 C6.86492502 50.53909498 5.1516456 30.16369909 1.25366211 10.13769531 C1 8 1 8 2 6 C1.34 6 0.68 6 0 6 C0 4.02 0 2.04 0 0 Z " fill="#34689A" transform="translate(475,332)"/>
<path d="M0 0 C0 3 0 3 0 3 Z M-2 3 C-2 7.0467232 -3.67482064 8.74474889 -6 12 C-6.53625 12.78375 -7.0725 13.5675 -7.625 14.375 C-8.07875 14.91125 -8.5325 15.4475 -9 16 C-9.66 16 -10.32 16 -11 16 C-11.10699219 16.5465625 -11.21398437 17.093125 -11.32421875 17.65625 C-12.42776347 21.48357271 -14.46087766 24.84195099 -16.33203125 28.34375 C-21.18924259 38.53701052 -22.55545597 47.49512228 -22.25 58.75 C-22.23195312 60.03132812 -22.21390625 61.31265625 -22.1953125 62.6328125 C-22.14869741 65.75602336 -22.08328138 68.87758874 -22 72 C-22.66 72 -23.32 72 -24 72 C-28.36027749 52.64901645 -24.25074759 34.53018488 -14.13818359 17.75878906 C-10.66932386 12.39850045 -6.51010142 7.51010142 -2 3 Z " fill="#34669B" transform="translate(277,453)"/>
<path d="M0 0 C0 0.66 0 1.32 0 2 C-12.77809517 6.2976392 -24.74901208 9.12094287 -38.3125 9.25 C-39.0535498 9.25942627 -39.79459961 9.26885254 -40.55810547 9.27856445 C-45.66391638 9.24826121 -50.1194063 8.53838914 -55 7 C-55.33 6.34 -55.66 5.68 -56 5 C-55.1248877 5.02094727 -54.24977539 5.04189453 -53.34814453 5.06347656 C-35.16294884 5.44109004 -17.3338354 0 0 0 Z " fill="#396A9A" transform="translate(357,565)"/>
<path d="M0 0 C1.109375 1.4765625 1.109375 1.4765625 2 4 C1.52990461 6.8627604 0.9474729 9.56765749 0.25 12.375 C-2.08859263 22.67924091 -2.79365288 32.94113387 -3.31542969 43.46630859 C-3.68053094 50.4838511 -4.34658644 57.16205314 -6 64 C-6.66 63.67 -7.32 63.34 -8 63 C-7.66381684 57.50758819 -7.3087737 52.01679593 -6.93798828 46.52661133 C-6.81493615 44.66820457 -6.69658725 42.80947896 -6.58349609 40.95043945 C-5.73723463 27.11443896 -4.41019073 13.2305722 0 0 Z " fill="#356795" transform="translate(324,325)"/>
<path d="M0 0 C0.66 0.33 1.32 0.66 2 1 C1.51531584 6.6422207 0.40607257 11.15029172 -2.125 16.25 C-2.43775879 16.89477295 -2.75051758 17.5395459 -3.07275391 18.20385742 C-8.12585494 28.47343042 -13.47514788 38.15227463 -22 46 C-22.66 46 -23.32 46 -24 46 C-24.061875 46.556875 -24.12375 47.11375 -24.1875 47.6875 C-25.33373872 50.94987173 -27.49390197 52.68667874 -30 55 C-30.99 54.67 -31.98 54.34 -33 54 C-31.65808594 52.63681641 -31.65808594 52.63681641 -30.2890625 51.24609375 C-15.87307472 36.36604199 -4.71553516 20.47177044 0 0 Z " fill="#356997" transform="translate(315,394)"/>
<path d="M0 0 C0.66 0 1.32 0 2 0 C1.81824219 0.71542969 1.63648438 1.43085938 1.44921875 2.16796875 C1.19785156 3.16441406 0.94648438 4.16085937 0.6875 5.1875 C0.44386719 6.15042969 0.20023437 7.11335938 -0.05078125 8.10546875 C-0.19040283 8.68578857 -0.33002441 9.2661084 -0.47387695 9.86401367 C-0.87807883 11.50501702 -1.30875127 13.13951812 -1.75073242 14.77075195 C-3.98134522 23.47248987 -4.53668315 31.86005541 -4.6875 40.8125 C-4.72078453 42.19859756 -4.75528378 43.5846665 -4.79101562 44.97070312 C-4.87255263 48.31372018 -4.94200552 51.65650595 -5 55 C-5.66 54.67 -6.32 54.34 -7 54 C-10.18677526 36.79141362 -7.89397583 15.78795165 0 0 Z " fill="#34659B" transform="translate(385,323)"/>
<path d="M0 0 C0.33 0.99 0.66 1.98 1 3 C0.57702637 3.40202637 0.15405273 3.80405273 -0.28173828 4.21826172 C-11.67343861 14.92023721 -11.67343861 14.92023721 -20 28 C-20.55300781 29.155 -21.10601562 30.31 -21.67578125 31.5 C-23.16158383 34.64724992 -24.59294932 37.81667257 -26 41 C-26.33 41 -26.66 41 -27 41 C-26.3161311 25.95488413 -14.05630876 12.63712763 -3.84765625 2.64453125 C-2 1 -2 1 0 0 Z " fill="#386C99" transform="translate(353,283)"/>
<path d="M0 0 C3.07745664 2.91946221 5.53196386 5.99253288 8 9.4375 C15.97915806 20.19429601 25.4505781 29.64072145 35 39 C34.34 39.66 33.68 40.32 33 41 C5.51295173 14.64751794 5.51295173 14.64751794 -1 1 C-0.67 0.67 -0.34 0.34 0 0 Z " fill="#4D82B3" transform="translate(148,487)"/>
<path d="M0 0 C0.66 0.66 1.32 1.32 2 2 C-7.9410344 8.97015056 -17.99521898 14.87305224 -29 20 C-29.969375 20.45632813 -30.93875 20.91265625 -31.9375 21.3828125 C-37.64772727 24 -37.64772727 24 -40 24 C-39 21 -39 21 -37.30444336 19.99194336 C-36.57362549 19.69425049 -35.84280762 19.39655762 -35.08984375 19.08984375 C-34.27185303 18.74445557 -33.4538623 18.39906738 -32.61108398 18.04321289 C-31.72880127 17.67832764 -30.84651855 17.31344238 -29.9375 16.9375 C-20.32287272 12.80681608 -11.68378643 7.80748802 -3 2 C-2.01 1.34 -1.02 0.68 0 0 Z " fill="#3A6C99" transform="translate(399,542)"/>
<path d="M0 0 C0.33 0 0.66 0 1 0 C0.96970703 0.9065332 0.93941406 1.81306641 0.90820312 2.74707031 C0.79481096 6.16889701 0.68321121 9.59077308 0.57275391 13.01269531 C0.5249492 14.48277026 0.47646726 15.95282336 0.42724609 17.42285156 C0.13107558 26.28378979 -0.07655186 35.13274322 0 44 C-0.99 44.495 -0.99 44.495 -2 45 C-2.78147839 38.76067657 -3.19306603 32.66151904 -3.1875 26.375 C-3.18741943 25.51414795 -3.18733887 24.6532959 -3.18725586 23.76635742 C-3.00468071 3.00468071 -3.00468071 3.00468071 0 0 Z " fill="#4C81B0" transform="translate(118,359)"/>
<path d="M0 0 C0.99 0 1.98 0 3 0 C2.67 13.2 2.34 26.4 2 40 C1.01 40.495 1.01 40.495 0 41 C-1.41113258 27.24145732 -1.07891995 13.75622935 0 0 Z " fill="#4C87B0" transform="translate(173,365)"/>
<path d="M0 0 C1.7779449 3.05936922 2.04798343 3.73518008 1.3828125 7.40625 C0.98132748 8.77617171 0.56068874 10.1405696 0.125 11.5 C-0.09824951 12.22888428 -0.32149902 12.95776855 -0.55151367 13.70874023 C-3.49273227 23.00416554 -7.24064543 32.01145749 -11 41 C-12.05444336 39.1652832 -12.05444336 39.1652832 -13 37 C-12.12890625 34.35546875 -12.12890625 34.35546875 -10.5625 31.1875 C-5.87086853 21.20843034 -3.06103375 10.56479891 0 0 Z " fill="#36659E" transform="translate(476,426)"/>
<path d="M0 0 C0.33 0 0.66 0 1 0 C3.68738575 10.85790532 2.43275552 23.15933574 0.625 34.0625 C0.49899414 34.82973389 0.37298828 35.59696777 0.24316406 36.38745117 C-0.73118505 41.73118505 -0.73118505 41.73118505 -3 44 C-3.20533657 38.96925396 -2.80172985 34.29545676 -2.0625 29.3125 C-0.6739058 19.5824924 -0.34882681 9.81394462 0 0 Z " fill="#346597" transform="translate(358,384)"/>
<path d="M0 0 C0.99 0.33 1.98 0.66 3 1 C-0.83304569 9.39490992 -5.21308156 17.18299435 -10.3125 24.875 C-11.10382324 26.07938721 -11.10382324 26.07938721 -11.91113281 27.30810547 C-12.4109668 28.04947754 -12.91080078 28.79084961 -13.42578125 29.5546875 C-13.87348877 30.21968262 -14.32119629 30.88467773 -14.7824707 31.56982422 C-15.18425537 32.04178223 -15.58604004 32.51374023 -16 33 C-16.66 33 -17.32 33 -18 33 C-16.39069376 28.35983367 -13.90006056 24.52957726 -11.25 20.4375 C-7.02435468 13.81227542 -3.32204384 7.13024044 0 0 Z " fill="#386C99" transform="translate(460,469)"/>
<path d="M0 0 C-0.48243164 0.30591064 -0.96486328 0.61182129 -1.46191406 0.92700195 C-18.28876841 11.64591949 -18.28876841 11.64591949 -32.1953125 25.81640625 C-32.79085938 26.53699219 -33.38640625 27.25757813 -34 28 C-34.66 28 -35.32 28 -36 28 C-31.59655388 18.64521354 -10.84493092 -3.61497697 0 0 Z " fill="#4577B1" transform="translate(357,255)"/>
<path d="M0 0 C0.33 0.66 0.66 1.32 1 2 C0.13026692 4.49364031 -0.80508484 6.84248043 -1.875 9.25 C-2.34450073 10.31395996 -2.34450073 10.31395996 -2.82348633 11.39941406 C-6.8582441 20.24654821 -11.82417589 29.32632159 -19 36 C-18.09110902 31.60772592 -15.75750453 28.37316716 -13.3125 24.6875 C-8.96018219 17.97793577 -5.85232043 11.33248632 -3.15625 3.81640625 C-2 1 -2 1 0 0 Z " fill="#33639A" transform="translate(375,431)"/>
<path d="M0 0 C0.33 0 0.66 0 1 0 C1.53672089 12.9011799 0.13653262 25.01475723 -5 37 C-5.66 37 -6.32 37 -7 37 C-6.731875 35.845 -6.46375 34.69 -6.1875 33.5 C-4.0216899 23.70744431 -1.92407163 13.83814908 -1.2109375 3.8203125 C-1 2 -1 2 0 0 Z " fill="#4B7FAC" transform="translate(295,367)"/>
<path d="M0 0 C0.33 0 0.66 0 1 0 C0.42344934 6.95131344 -0.56792028 13.72478415 -1.9375 20.5625 C-2.10701172 21.46291016 -2.27652344 22.36332031 -2.45117188 23.29101562 C-2.62068359 24.14501953 -2.79019531 24.99902344 -2.96484375 25.87890625 C-3.1155835 26.6479126 -3.26632324 27.41691895 -3.42163086 28.20922852 C-3.61249268 28.80018311 -3.80335449 29.3911377 -4 30 C-4.66 30.33 -5.32 30.66 -6 31 C-5.47703913 21.47850555 -3.8815863 12.32509434 -2 3 C-1.34 3 -0.68 3 0 3 C0 2.01 0 1.02 0 0 Z " fill="#4482B6" transform="translate(180,331)"/>
<path d="M0 0 C2.68271649 4.02407474 4.38611544 8.40468088 6.2578125 12.84375 C7.74986918 16.32521558 9.31136546 19.59374859 11.2890625 22.828125 C12.13597656 24.39820313 12.13597656 24.39820313 13 26 C12.67 26.99 12.34 27.98 12 29 C8.4677125 24.5351886 6.20453968 19.61015747 3.75 14.5 C3.04230469 13.07494141 3.04230469 13.07494141 2.3203125 11.62109375 C1.87945312 10.70457031 1.43859375 9.78804688 0.984375 8.84375 C0.57928711 8.01037109 0.17419922 7.17699219 -0.24316406 6.31835938 C-1.08818098 3.72988175 -0.92653 2.5200456 0 0 Z " fill="#4D82B1" transform="translate(129,449)"/>
<path d="M0 0 C3.64977107 1.21659036 3.95612679 2.12263772 5.84765625 5.3671875 C6.37037109 6.25277344 6.89308594 7.13835938 7.43164062 8.05078125 C8.23891602 9.44876953 8.23891602 9.44876953 9.0625 10.875 C10.1363107 12.70596854 11.21051304 14.53670746 12.28515625 16.3671875 C12.75832275 17.18300293 13.23148926 17.99881836 13.71899414 18.83935547 C14.758572 20.59278868 15.86927523 22.30391284 17 24 C16.67 24.99 16.34 25.98 16 27 C12.42559609 21.76024881 8.97838935 16.44576971 5.625 11.0625 C4.93664062 9.96035156 4.24828125 8.85820313 3.5390625 7.72265625 C2 5 2 5 2 3 C0.68 3.33 -0.64 3.66 -2 4 C-1.34 2.68 -0.68 1.36 0 0 Z " fill="#5180AC" transform="translate(298,53)"/>
<path d="M0 0 C0.66 0 1.32 0 2 0 C1.31617134 4.36149256 -0.19514325 8.25751528 -1.875 12.3125 C-3.99556953 17.51505687 -6.06268898 22.7262089 -8 28 C-8.66 27.67 -9.32 27.34 -10 27 C-7.53388806 17.80616163 -4.26472953 8.52945905 0 0 Z " fill="#4D80B0" transform="translate(136,299)"/>
<path d="M0 0 C3.75258465 0.58981399 5.72247519 2.23113587 8.5625 4.6875 C13.68054013 8.92075227 19.07869104 12.02808828 25 15 C24.67 15.66 24.34 16.32 24 17 C14.77266944 12.86498587 7.01095278 8.52788939 0 1 C0 0.67 0 0.34 0 0 Z " fill="#39689A" transform="translate(270,553)"/>
<path d="M0 0 C0.42667969 0.32871094 0.85335937 0.65742187 1.29296875 0.99609375 C6.29215768 4.79960038 11.4133696 8.39554457 16.60620117 11.92749023 C18.9152102 13.50737479 21.01651812 15.01651812 23 17 C17.83241479 16.53860846 15.04963378 14.93486823 11 11.75 C9.96359375 10.94175781 8.9271875 10.13351562 7.859375 9.30078125 C4.87512042 6.89951629 1.9025329 4.49940333 -1 2 C-0.67 1.34 -0.34 0.68 0 0 Z " fill="#4D81B1" transform="translate(185,528)"/>
<path d="M0 0 C2.68234235 2.42457972 4.36856725 5.07510397 6.1875 8.1875 C6.71730469 9.08855469 7.24710938 9.98960937 7.79296875 10.91796875 C8.19128906 11.60503906 8.58960938 12.29210937 9 13 C4.94087374 14.35304209 3.22850409 13.15216503 -0.6875 11.5625 C-1.86699219 11.08941406 -3.04648438 10.61632812 -4.26171875 10.12890625 C-5.16535156 9.75636719 -6.06898438 9.38382813 -7 9 C-6.34 8.34 -5.68 7.68 -5 7 C-0.05 8.98 -0.05 8.98 5 11 C4.175 9.741875 3.35 8.48375 2.5 7.1875 C0 3.375 0 3.375 0 0 Z " fill="#4979AF" transform="translate(240,551)"/>
<path d="M0 0 C4.42003389 1.63831372 8.48553028 3.7685671 12.625 6 C13.29273438 6.35578125 13.96046875 6.7115625 14.6484375 7.078125 C17.52174225 8.61821635 20.28543704 10.19029136 23 12 C20 13 20 13 16.34765625 11.41796875 C14.91407831 10.68454122 13.4858484 9.94058765 12.0625 9.1875 C11.34642578 8.81818359 10.63035156 8.44886719 9.89257812 8.06835938 C8.55111658 7.37587181 7.2117541 6.67929152 5.87524414 5.97729492 C3.92766823 4.96230386 1.96674609 3.97724653 0 3 C0 2.01 0 1.02 0 0 Z " fill="#478AB6" transform="translate(210,546)"/>
<path d="M0 0 C0 3.51216333 -0.60903266 4.16443715 -2.703125 6.87109375 C-3.27160156 7.61037109 -3.84007812 8.34964844 -4.42578125 9.11132812 C-5.02777344 9.87896484 -5.62976563 10.64660156 -6.25 11.4375 C-6.83652344 12.20126953 -7.42304688 12.96503906 -8.02734375 13.75195312 C-10.83851234 17.38120336 -13.62555155 20.86777681 -17 24 C-17 20.37239664 -16.16688357 19.4940934 -14.04296875 16.62109375 C-13.42486328 15.78255859 -12.80675781 14.94402344 -12.16992188 14.08007812 C-11.51572266 13.20802734 -10.86152344 12.33597656 -10.1875 11.4375 C-9.54490234 10.56158203 -8.90230469 9.68566406 -8.24023438 8.78320312 C-3.39848516 2.26565677 -3.39848516 2.26565677 0 0 Z " fill="#5085B2" transform="translate(231,152)"/>
<path d="M0 0 C0.66 0.33 1.32 0.66 2 1 C0.11249466 3.73501192 -1.78647098 6.46187457 -3.6875 9.1875 C-4.21794922 9.95642578 -4.74839844 10.72535156 -5.29492188 11.51757812 C-8.25189043 15.74441047 -11.2122898 19.49338146 -15 23 C-15 19.34603334 -14.13248403 18.46710757 -11.97265625 15.5859375 C-11.34552734 14.74289063 -10.71839844 13.89984375 -10.07226562 13.03125 C-9.07743164 11.71640625 -9.07743164 11.71640625 -8.0625 10.375 C-7.40314453 9.49070312 -6.74378906 8.60640625 -6.06445312 7.6953125 C-1.23135923 1.23135923 -1.23135923 1.23135923 0 0 Z " fill="#5285B0" transform="translate(264,106)"/>
<path d="M0 0 C0 0.33 0 0.66 0 1 C-4.91502758 2.29235715 -9.77290102 2.11135517 -14.8125 2.0625 C-15.69615234 2.05798828 -16.57980469 2.05347656 -17.49023438 2.04882812 C-19.66018559 2.03709866 -21.83010172 2.01916495 -24 2 C-24 1.34 -24 0.68 -24 0 C-15.96992764 -1.50563857 -8.08567124 -0.63782601 0 0 Z " fill="#2E5DA2" transform="translate(413,267)"/>
<path d="M0 0 C0.66 0.33 1.32 0.66 2 1 C2.33 7.6 2.66 14.2 3 21 C2.34 21 1.68 21 1 21 C-2.09243697 4.18487395 -2.09243697 4.18487395 0 0 Z " fill="#2E58A9" transform="translate(252,504)"/>
<path d="M0 0 C0.33 0 0.66 0 1 0 C1 7.59 1 15.18 1 23 C0.01 23 -0.98 23 -2 23 C-2.0580476 19.72924117 -2.09361165 16.45861476 -2.125 13.1875 C-2.14175781 12.25873047 -2.15851563 11.32996094 -2.17578125 10.37304688 C-2.18222656 9.48037109 -2.18867188 8.58769531 -2.1953125 7.66796875 C-2.20578613 6.84578857 -2.21625977 6.0236084 -2.22705078 5.17651367 C-2 3 -2 3 0 0 Z " fill="#2A6097" transform="translate(380,382)"/>
<path d="M0 0 C0.66 0.99 1.32 1.98 2 3 C1.58447266 4.90112305 1.58447266 4.90112305 0.6640625 7.01171875 C0.34179688 7.76904297 0.01953125 8.52636719 -0.3125 9.30664062 C-0.663125 10.09232422 -1.01375 10.87800781 -1.375 11.6875 C-1.71789062 12.48478516 -2.06078125 13.28207031 -2.4140625 14.10351562 C-3.26376335 16.07434954 -4.13031385 18.0379032 -5 20 C-5.66 19.67 -6.32 19.34 -7 19 C-5.17778624 12.38757278 -2.94776396 6.19479329 0 0 Z " fill="#335F9E" transform="translate(353,431)"/>
<path d="M0 0 C0.33 0 0.66 0 1 0 C2.32719886 6.96779403 2.08825381 13.92988911 2 21 C1.34 20.67 0.68 20.34 0 20 C-1.15830578 13.74514876 -1.37943637 7.34997933 -1 1 C-0.67 0.67 -0.34 0.34 0 0 Z " fill="#295EA2" transform="translate(378,357)"/>
<path d="M0 0 C0.66 0 1.32 0 2 0 C0.55676531 4.73789165 -1.37226733 8.98858151 -3.625 13.375 C-3.94984375 14.01566406 -4.2746875 14.65632813 -4.609375 15.31640625 C-5.40257407 16.87947501 -6.20077031 18.44000622 -7 20 C-7.66 19.67 -8.32 19.34 -9 19 C-7.6077541 14.37324343 -5.70479016 10.35313769 -3.375 6.125 C-2.74335938 4.97257812 -2.11171875 3.82015625 -1.4609375 2.6328125 C-0.97882813 1.76398438 -0.49671875 0.89515625 0 0 Z " fill="#4D81AF" transform="translate(148,275)"/>
<path d="M0 0 C4.54786639 1.51595546 6.12439059 5.01380969 8.75 8.875 C9.26949219 9.60847656 9.78898437 10.34195313 10.32421875 11.09765625 C10.81019531 11.80535156 11.29617188 12.51304687 11.796875 13.2421875 C12.24385742 13.8904248 12.69083984 14.53866211 13.15136719 15.20654297 C14 17 14 17 13 20 C12.31292969 19.03578125 11.62585938 18.0715625 10.91796875 17.078125 C10.00783788 15.80206523 9.09768022 14.52602457 8.1875 13.25 C7.50977539 12.29867187 7.50977539 12.29867187 6.81835938 11.328125 C6.37685547 10.709375 5.93535156 10.090625 5.48046875 9.453125 C5.0529834 8.85306641 4.62549805 8.25300781 4.18505859 7.63476562 C3.21156029 6.29184337 2.19879223 4.97747359 1.17578125 3.671875 C0 2 0 2 0 0 Z " fill="#4C80AE" transform="translate(399,196)"/>
<path d="M0 0 C0.99 0.33 1.98 0.66 3 1 C1.515 2.485 1.515 2.485 0 4 C0.99 4.66 1.98 5.32 3 6 C-2.625 9 -2.625 9 -6 9 C-5.70381606 5.44579276 -5.19662957 4.19662957 -2.625 1.625 C-1.325625 0.820625 -1.325625 0.820625 0 0 Z " fill="#376A98" transform="translate(314,491)"/>
<path d="M0 0 C-2.65509071 1.37960596 -5.28478113 2.52348433 -8.109375 3.5078125 C-9.24052734 3.90419922 -9.24052734 3.90419922 -10.39453125 4.30859375 C-11.17183594 4.57800781 -11.94914062 4.84742188 -12.75 5.125 C-13.54277344 5.40214844 -14.33554687 5.67929688 -15.15234375 5.96484375 C-17.10073351 6.64560644 -19.05025658 7.32312401 -21 8 C-21.33 7.34 -21.66 6.68 -22 6 C-19.77335683 5.014733 -17.54398683 4.03668556 -15.3125 3.0625 C-14.68666016 2.78470703 -14.06082031 2.50691406 -13.41601562 2.22070312 C-4.70028409 -1.56676136 -4.70028409 -1.56676136 0 0 Z " fill="#4F7CA8" transform="translate(378,247)"/>
<path d="M0 0 C2.98820352 2.98820352 3.308619 6.46266883 4.25 10.5 C4.44851563 11.28503906 4.64703125 12.07007813 4.8515625 12.87890625 C5.32974374 14.89904875 5.67494312 16.94964123 6 19 C5.34 19.66 4.68 20.32 4 21 C2.41837873 16.67690187 1.44114096 12.58786593 1 8 C1.33 7.34 1.66 6.68 2 6 C1.34 6 0.68 6 0 6 C0 4.02 0 2.04 0 0 Z " fill="#3262A0" transform="translate(475,332)"/>
<path d="M0 0 C1.412455 4.237365 -0.42168872 6.81064079 -2.25 10.625 C-2.71986328 11.66527344 -2.71986328 11.66527344 -3.19921875 12.7265625 C-4.04687422 14.52739072 -5.01696016 16.26935424 -6 18 C-6.99 18.33 -7.98 18.66 -9 19 C-7.54073252 11.86580342 -3.7773022 6.15074075 0 0 Z " fill="#4E81AC" transform="translate(313,293)"/>
<path d="M0 0 C1 4 1 4 -0.328125 6.40234375 C-0.96234375 7.23894531 -1.5965625 8.07554687 -2.25 8.9375 C-4.69704604 12.20865452 -6.95021655 15.4634909 -9 19 C-9.99 18.67 -10.98 18.34 -12 18 C-8.04 12.06 -4.08 6.12 0 0 Z " fill="#4D83B1" transform="translate(186,212)"/>
<path d="M0 0 C0.66 0 1.32 0 2 0 C0.63930324 2.90929927 -0.92593172 5.38755316 -2.875 7.9375 C-3.4009375 8.62714844 -3.926875 9.31679687 -4.46875 10.02734375 C-6.28832928 12.37144461 -8.12874799 14.6969206 -10 17 C-10.66 16.67 -11.32 16.34 -12 16 C-10.05201388 13.3256311 -8.08996102 10.66191516 -6.125 8 C-5.56941406 7.236875 -5.01382813 6.47375 -4.44140625 5.6875 C-3.90644531 4.965625 -3.37148437 4.24375 -2.8203125 3.5 C-2.32805176 2.8296875 -1.83579102 2.159375 -1.32861328 1.46875 C-0.8901709 0.9840625 -0.45172852 0.499375 0 0 Z " fill="#4F84B3" transform="translate(245,132)"/>
<path d="M0 0 C0.99 0.33 1.98 0.66 3 1 C2.54901762 2.93922422 2.08894441 4.87633594 1.625 6.8125 C1.36976563 7.89144531 1.11453125 8.97039062 0.8515625 10.08203125 C0 13 0 13 -2 16 C-3.12377697 12.69564916 -2.89554742 10.9493138 -1.5625 7.75 C-1.27503906 7.04359375 -0.98757812 6.3371875 -0.69140625 5.609375 C-0.46324219 5.07828125 -0.23507813 4.5471875 0 4 C-0.66 3.67 -1.32 3.34 -2 3 C-1.34 2.01 -0.68 1.02 0 0 Z " fill="#5084B2" transform="translate(193,277)"/>
<path d="M0 0 C0.66 0 1.32 0 2 0 C0.47146065 4.27186525 -1.71509481 7.99326863 -4.125 11.8125 C-4.49753906 12.40998047 -4.87007812 13.00746094 -5.25390625 13.62304688 C-6.1657048 15.08426251 -7.08235976 16.54244585 -8 18 C-9 15 -9 15 -8.3190918 13.2824707 C-7.94953369 12.66976318 -7.57997559 12.05705566 -7.19921875 11.42578125 C-6.79896484 10.75869141 -6.39871094 10.09160156 -5.98632812 9.40429688 C-5.55771484 8.71400391 -5.12910156 8.02371094 -4.6875 7.3125 C-4.27048828 6.61060547 -3.85347656 5.90871094 -3.42382812 5.18554688 C-2.34604495 3.41674482 -1.17922157 1.70285459 0 0 Z " fill="#4E82AF" transform="translate(169,238)"/>
<path d="M0 0 C0.33 0 0.66 0 1 0 C1.3690205 11.52164009 1.3690205 11.52164009 -1 17 C-1.33 17 -1.66 17 -2 17 C-2.11116338 11.55299453 -2.00581962 6.36437132 -1 1 C-0.67 0.67 -0.34 0.34 0 0 Z " fill="#4779B1" transform="translate(297,338)"/>
<path d="M0 0 C2.38838945 3.04303836 4.35892422 6.18885754 6.25 9.5625 C7.06210938 10.98755859 7.06210938 10.98755859 7.890625 12.44140625 C9 15 9 15 8 18 C7.03980636 16.41779413 6.08192202 14.83418669 5.125 13.25 C4.59132812 12.36828125 4.05765625 11.4865625 3.5078125 10.578125 C0 4.58031088 0 4.58031088 0 0 Z " fill="#4D81B1" transform="translate(163,439)"/>
<path d="M0 0 C-1.31157516 3.93472548 -3.33383447 5.12683424 -6.5625 7.6875 C-8.08037109 8.89986328 -8.08037109 8.89986328 -9.62890625 10.13671875 C-10.41136719 10.75160156 -11.19382812 11.36648438 -12 12 C-12 9 -12 9 -10.57421875 7.24609375 C-9.95160156 6.64925781 -9.32898438 6.05242188 -8.6875 5.4375 C-8.07261719 4.83808594 -7.45773437 4.23867188 -6.82421875 3.62109375 C-2.74939759 0 -2.74939759 0 0 0 Z " fill="#3663A4" transform="translate(421,526)"/>
<path d="M0 0 C4.08596252 1.52763464 5.79826179 4.11084191 8.25 7.625 C8.95640625 8.62789062 9.6628125 9.63078125 10.390625 10.6640625 C11.18726563 11.82035156 11.18726563 11.82035156 12 13 C11.01 13.33 10.02 13.66 9 14 C7.49717827 11.85609361 5.99764203 9.71001973 4.5 7.5625 C4.07074219 6.95083984 3.64148438 6.33917969 3.19921875 5.70898438 C0 1.11328125 0 1.11328125 0 0 Z " fill="#4E84B1" transform="translate(347,126)"/>
<path d="M0 0 C0.33 0.99 0.66 1.98 1 3 C-2.3 6.3 -5.6 9.6 -9 13 C-9 9.26130751 -8.09514308 8.63449295 -5.625 5.9375 C-4.99851562 5.24527344 -4.37203125 4.55304688 -3.7265625 3.83984375 C-2.50602933 2.53923035 -1.26120903 1.26120903 0 0 Z " fill="#4B81AF" transform="translate(273,423)"/>
<path d="M0 0 C1.19587778 3.58763335 0.68815865 5.03021679 -0.3125 8.625 C-0.57675781 9.60726563 -0.84101563 10.58953125 -1.11328125 11.6015625 C-2 14 -2 14 -4 15 C-3.85851011 13.3954444 -3.71164314 11.79136233 -3.5625 10.1875 C-3.48128906 9.29417969 -3.40007812 8.40085937 -3.31640625 7.48046875 C-3 5 -3 5 -2 2 C-1.34 2 -0.68 2 0 2 C0 1.34 0 0.68 0 0 Z " fill="#4D82AE" transform="translate(185,312)"/>
<path d="M0 0 C0.66 0.33 1.32 0.66 2 1 C-0.97 5.29 -3.94 9.58 -7 14 C-7.66 13.34 -8.32 12.68 -9 12 C-6.03 8.04 -3.06 4.08 0 0 Z " fill="#5083B1" transform="translate(202,190)"/>
<path d="M0 0 C0 3.83764027 -1.26535335 5.11486085 -3.5 8.1875 C-4.1496875 9.08855469 -4.799375 9.98960938 -5.46875 10.91796875 C-5.9740625 11.60503906 -6.479375 12.29210937 -7 13 C-7.33 12.01 -7.66 11.02 -8 10 C-6.85546875 7.7734375 -6.85546875 7.7734375 -5.1875 5.375 C-4.64480469 4.57835938 -4.10210937 3.78171875 -3.54296875 2.9609375 C-2 1 -2 1 0 0 Z " fill="#5485AF" transform="translate(276,90)"/>
<path d="M0 0 C0.33 0.99 0.66 1.98 1 3 C-1.69544767 7.36743588 -5.81833004 11.09606253 -10 14 C-10.66 14 -11.32 14 -12 14 C-12 13.34 -12 12.68 -12 12 C-10.390625 10.44921875 -10.390625 10.44921875 -8.25 8.6875 C-5.09829823 6.01637687 -2.44230671 3.35817172 0 0 Z " fill="#316598" transform="translate(354,466)"/>
<path d="M0 0 C0.66 0.66 1.32 1.32 2 2 C0.21475351 3.19713017 -1.5784028 4.38247279 -3.375 5.5625 C-4.87160156 6.55443359 -4.87160156 6.55443359 -6.3984375 7.56640625 C-7.25695312 8.03949219 -8.11546875 8.51257813 -9 9 C-9.66 8.67 -10.32 8.34 -11 8 C-7.61831569 4.31993178 -4.57478244 2.0214155 0 0 Z " fill="#3D6C98" transform="translate(367,274)"/>
<path d="M0 0 C0.33 0.99 0.66 1.98 1 3 C-1.97 6.3 -4.94 9.6 -8 13 C-8.66 12.67 -9.32 12.34 -10 12 C-8.52149287 10.18696196 -7.04217625 8.37458402 -5.5625 6.5625 C-4.32693359 5.04849609 -4.32693359 5.04849609 -3.06640625 3.50390625 C-1 1 -1 1 0 0 Z " fill="#4D81AD" transform="translate(260,437)"/>
<path d="M0 0 C2 1 2 1 2.66796875 2.890625 C4.38738561 10.6991046 4.38738561 10.6991046 3 15 C2.67 15 2.34 15 2 15 C1.66048381 13.43883181 1.32867456 11.87598662 1 10.3125 C0.814375 9.44238281 0.62875 8.57226562 0.4375 7.67578125 C0.01027953 5.06287036 -0.07616201 2.64186962 0 0 Z " fill="#4C7FAF" transform="translate(118,413)"/>
<path d="M0 0 C0.66 0.33 1.32 0.66 2 1 C1.32116957 4.11547441 0.25893098 6.85137721 -1.0625 9.75 C-1.60583984 10.94882812 -1.60583984 10.94882812 -2.16015625 12.171875 C-2.43730469 12.77515625 -2.71445312 13.3784375 -3 14 C-3.33 14 -3.66 14 -4 14 C-3.46148032 8.72250715 -2.22656164 4.74354436 0 0 Z " fill="#315EA1" transform="translate(330,310)"/>
<path d="M0 0 C0.66 0 1.32 0 2 0 C2.28571429 8.57142857 2.28571429 8.57142857 0 12 C-0.66 12 -1.32 12 -2 12 C-1.34 8.04 -0.68 4.08 0 0 Z " fill="#325DA0" transform="translate(377,414)"/>
<path d="M0 0 C3 1 3 1 3 1 Z M0 1 C0 1.66 0 2.32 0 3 C-2.1875 4.7265625 -2.1875 4.7265625 -5 6.625 C-5.928125 7.25664062 -6.85625 7.88828125 -7.8125 8.5390625 C-8.534375 9.02117187 -9.25625 9.50328125 -10 10 C-10 9.01 -10 8.02 -10 7 C-8.3203125 5.39453125 -8.3203125 5.39453125 -6.125 3.8125 C-5.04605469 3.01779297 -5.04605469 3.01779297 -3.9453125 2.20703125 C-2 1 -2 1 0 1 Z " fill="#346998" transform="translate(339,481)"/>
<path d="M0 0 C0.99 0.33 1.98 0.66 3 1 C2.01 4.96 1.02 8.92 0 13 C-0.33 13 -0.66 13 -1 13 C-1.07654536 8.48382401 -1.10228696 4.40914783 0 0 Z " fill="#305F9E" transform="translate(356,415)"/>
<path d="M0 0 C3.63 0.33 7.26 0.66 11 1 C11.33 1.99 11.66 2.98 12 4 C10.56138706 3.91253716 9.12402492 3.80434652 7.6875 3.6875 C6.88699219 3.62949219 6.08648437 3.57148437 5.26171875 3.51171875 C3 3 3 3 0 0 Z " fill="#32619F" transform="translate(301,570)"/>
<path d="M0 0 C0.33 0.99 0.66 1.98 1 3 C-1.31 5.31 -3.62 7.62 -6 10 C-6.66 9.34 -7.32 8.68 -8 8 C-5.36 5.36 -2.72 2.72 0 0 Z " fill="#3E6A97" transform="translate(428,517)"/>
<path d="M0 0 C0.66 0 1.32 0 2 0 C2.50615298 1.26839526 3.00469099 2.53983102 3.5 3.8125 C3.91765625 4.87404297 3.91765625 4.87404297 4.34375 5.95703125 C5 8 5 8 5 11 C4.34 11 3.68 11 3 11 C2.49384702 9.73160474 1.99530901 8.46016898 1.5 7.1875 C1.2215625 6.47980469 0.943125 5.77210938 0.65625 5.04296875 C0 3 0 3 0 0 Z " fill="#5280AA" transform="translate(123,436)"/>
<path d="M0 0 C0 0.66 0 1.32 0 2 C-1.26839526 2.50615298 -2.53983102 3.00469099 -3.8125 3.5 C-4.87404297 3.91765625 -4.87404297 3.91765625 -5.95703125 4.34375 C-8 5 -8 5 -11 5 C-11 4.34 -11 3.68 -11 3 C-9.73160474 2.49384702 -8.46016898 1.99530901 -7.1875 1.5 C-6.12595703 1.08234375 -6.12595703 1.08234375 -5.04296875 0.65625 C-3 0 -3 0 0 0 Z " fill="#3B6F9A" transform="translate(383,269)"/>
<path d="M0 0 C4.00972202 3.67557852 6.45335415 7.18966896 9 12 C5.5912072 10.6015209 4.12606165 9.14993067 2.25 6 C1.82203125 5.29875 1.3940625 4.5975 0.953125 3.875 C0 2 0 2 0 0 Z " fill="#4E82B0" transform="translate(322,90)"/>
<path d="M0 0 C0 0.66 0 1.32 0 2 C-4.95 3.485 -4.95 3.485 -10 5 C-10 4.01 -10 3.02 -10 2 C-3.375 0 -3.375 0 0 0 Z " fill="#3C6C97" transform="translate(357,565)"/>
<path d="M0 0 C0.33 0.99 0.66 1.98 1 3 C-0.21484375 5.26171875 -0.21484375 5.26171875 -1.9375 7.6875 C-2.78634766 8.89986328 -2.78634766 8.89986328 -3.65234375 10.13671875 C-4.09707031 10.75160156 -4.54179687 11.36648438 -5 12 C-5.66 11.34 -6.32 10.68 -7 10 C-3.535 5.05 -3.535 5.05 0 0 Z " fill="#5181B1" transform="translate(247,453)"/>
<path d="M0 0 C0.66 0.33 1.32 0.66 2 1 C2.4140625 3.50390625 2.4140625 3.50390625 2.625 6.5625 C2.69976562 7.57441406 2.77453125 8.58632813 2.8515625 9.62890625 C2.92503906 10.80259766 2.92503906 10.80259766 3 12 C2.34 12 1.68 12 1 12 C0.63896464 10.18885568 0.28634496 8.37603177 -0.0625 6.5625 C-0.25972656 5.55316406 -0.45695313 4.54382813 -0.66015625 3.50390625 C-0.77230469 2.67761719 -0.88445312 1.85132813 -1 1 C-0.67 0.67 -0.34 0.34 0 0 Z " fill="#4C88B7" transform="translate(180,447)"/>
<path d="M0 0 C3 1 3 1 4.75 3.375 C6 6 6 6 5 9 C2 5.25 2 5.25 2 3 C0.68 3.33 -0.64 3.66 -2 4 C-1.34 2.68 -0.68 1.36 0 0 Z " fill="#4476AA" transform="translate(298,53)"/>
<path d="M0 0 C0.95465783 2.16967689 1.14401212 3.56328793 0.3984375 5.82421875 C-0.35870385 7.5684743 -1.17609198 9.28627131 -2 11 C-3.46761039 7.18421299 -2.4801051 4.70026276 -1 1 C-0.67 0.67 -0.34 0.34 0 0 Z " fill="#4879B2" transform="translate(232,485)"/>
<path d="M0 0 C2.58926331 2.58926331 2.37398043 4.02705279 2.625 7.625 C2.69976562 8.62789063 2.77453125 9.63078125 2.8515625 10.6640625 C2.90054688 11.43492187 2.94953125 12.20578125 3 13 C1.12396022 10.18594033 0.50907198 8.59075334 -0.1875 5.375 C-0.36667969 4.57835937 -0.54585937 3.78171875 -0.73046875 2.9609375 C-0.81941406 2.31382812 -0.90835938 1.66671875 -1 1 C-0.67 0.67 -0.34 0.34 0 0 Z " fill="#4476B0" transform="translate(154,412)"/>
<path d="M0 0 C0.99 0.33 1.98 0.66 3 1 C2.05016642 2.50539661 1.08988109 4.00420347 0.125 5.5 C-0.40867187 6.3353125 -0.94234375 7.170625 -1.4921875 8.03125 C-1.98976563 8.6809375 -2.48734375 9.330625 -3 10 C-3.66 10 -4.32 10 -5 10 C-3.66511872 6.40608886 -2.03977277 3.24509304 0 0 Z " fill="#4E83AC" transform="translate(284,408)"/>
<path d="M0 0 C1.12758089 3.38274266 0.81750262 4.76778223 0.0625 8.1875 C-0.13214844 9.08855469 -0.32679688 9.98960937 -0.52734375 10.91796875 C-0.68332031 11.60503906 -0.83929688 12.29210937 -1 13 C-1.66 12.67 -2.32 12.34 -3 12 C-2.88648483 10.18674449 -2.75887039 8.37436643 -2.625 6.5625 C-2.55539062 5.55316406 -2.48578125 4.54382813 -2.4140625 3.50390625 C-2.27742188 2.67761719 -2.14078125 1.85132813 -2 1 C-1.34 0.67 -0.68 0.34 0 0 Z " fill="#31609F" transform="translate(319,376)"/>
<path d="M0 0 C0.66 0 1.32 0 2 0 C1.34 3.3 0.68 6.6 0 10 C-0.99 9.67 -1.98 9.34 -3 9 C-2.01 6.03 -1.02 3.06 0 0 Z " fill="#5082B1" transform="translate(188,297)"/>
<path d="M0 0 C1.175625 0.5259375 1.175625 0.5259375 2.375 1.0625 C3.674375 1.5265625 3.674375 1.5265625 5 2 C5.66 1.67 6.32 1.34 7 1 C6.625 3.4375 6.625 3.4375 6 6 C5.01 6.495 5.01 6.495 4 7 C0 2.25 0 2.25 0 0 Z " fill="#5085B4" transform="translate(178,464)"/>
<path d="M0 0 C0.75 1.625 0.75 1.625 1 4 C-0.8125 7.25 -0.8125 7.25 -3 10 C-3.66 10 -4.32 10 -5 10 C-3.66511872 6.40608886 -2.03977277 3.24509304 0 0 Z " fill="#4A90BA" transform="translate(292,63)"/>
<path d="M0 0 C0.33 0 0.66 0 1 0 C0.67 2.97 0.34 5.94 0 9 C-0.99 9.33 -1.98 9.66 -3 10 C-2.69201674 8.51988629 -2.378482 7.04092675 -2.0625 5.5625 C-1.88847656 4.73878906 -1.71445312 3.91507812 -1.53515625 3.06640625 C-1 1 -1 1 0 0 Z " fill="#4B7EB1" transform="translate(300,325)"/>
<path d="M0 0 C1.15957207 3.47871621 0.77456651 4.34219645 -0.4375 7.6875 C-0.72496094 8.49574219 -1.01242187 9.30398438 -1.30859375 10.13671875 C-1.65083984 11.05904297 -1.65083984 11.05904297 -2 12 C-2.33 12 -2.66 12 -3 12 C-3.15384615 4 -3.15384615 4 -2 1 C-1.34 0.67 -0.68 0.34 0 0 Z " fill="#4289B8" transform="translate(305,311)"/>
<path d="M0 0 C3.69790046 1.23263349 3.9354846 2.20052451 5.6875 5.5625 C6.12449219 6.38878906 6.56148438 7.21507812 7.01171875 8.06640625 C7.33785156 8.70449219 7.66398437 9.34257812 8 10 C4.50126729 8.60344703 3.29108169 7.28739516 1.75 3.875 C1.41484375 3.15054688 1.0796875 2.42609375 0.734375 1.6796875 C0.49203125 1.12539062 0.2496875 0.57109375 0 0 Z " fill="#4F82AD" transform="translate(422,230)"/>
<path d="M0 0 C0.33 0.99 0.66 1.98 1 3 C-2.21311475 8.73770492 -2.21311475 8.73770492 -6 10 C-4.34832443 6.4213696 -2.21713508 3.25179812 0 0 Z " fill="#3060A0" transform="translate(397,303)"/>
<path d="M0 0 C0.33 0.99 0.66 1.98 1 3 C0.00390625 4.82421875 0.00390625 4.82421875 -1.4375 6.6875 C-1.91058594 7.31011719 -2.38367188 7.93273437 -2.87109375 8.57421875 C-3.24363281 9.04472656 -3.61617187 9.51523437 -4 10 C-4.65234375 8.203125 -4.65234375 8.203125 -5 6 C-3.63510623 3.66629928 -1.8580962 1.99405446 0 0 Z " fill="#488AB5" transform="translate(186,286)"/>
<path d="M0 0 C0.66 0 1.32 0 2 0 C0.90931332 3.77545388 0.0916909 6.47043472 -3 9 C-3.33 8.34 -3.66 7.68 -4 7 C-3.22265625 5.2734375 -3.22265625 5.2734375 -2.0625 3.375 C-1.381875 2.26125 -0.70125 1.1475 0 0 Z " fill="#5182B0" transform="translate(157,258)"/>
<path d="M0 0 C3.53233755 1.17744585 3.86308075 1.95605641 5.6875 5.0625 C6.12449219 5.79597656 6.56148438 6.52945313 7.01171875 7.28515625 C7.33785156 7.85105469 7.66398437 8.41695312 8 9 C4.26127505 7.30343574 2.3711259 5.38732271 0 2 C0 1.34 0 0.68 0 0 Z " fill="#4C82AF" transform="translate(391,185)"/>
<path d="M0 0 C4.04648443 1.34882814 4.95502599 3.34826069 7 7 C6.67 7.99 6.34 8.98 6 10 C4.99421411 8.71283353 3.99553202 7.42011342 3 6.125 C2.443125 5.40570313 1.88625 4.68640625 1.3125 3.9453125 C0 2 0 2 0 0 Z " fill="#4E82AD" transform="translate(383,174)"/>
<path d="M0 0 C0.66 0 1.32 0 2 0 C0.68775452 3.93673644 -0.91910327 6.22719294 -4 9 C-3.4739075 5.21213403 -2.61896089 2.82847776 0 0 Z " fill="#5985AF" transform="translate(286,73)"/>
<path d="M0 0 C0.99 0.66 1.98 1.32 3 2 C-3.625 5.125 -3.625 5.125 -7 4 C-2.25 1.125 -2.25 1.125 0 0 Z " fill="#3561A4" transform="translate(374,557)"/>
<path d="M0 0 C1.25541557 3.76624671 0.37061958 5.37188934 -1 9 C-1.66 9 -2.32 9 -3 9 C-2.25 2.25 -2.25 2.25 0 0 Z " fill="#4D7EAF" transform="translate(124,334)"/>
<path d="M0 0 C4.15456665 2.07728332 5.11663488 2.93589633 7 7 C6.67 7.99 6.34 8.98 6 10 C4.02 6.7 2.04 3.4 0 0 Z " fill="#4881B1" transform="translate(413,217)"/>
<path d="M0 0 C0.99 0.33 1.98 0.66 3 1 C0.03 3.475 0.03 3.475 -3 6 C-3.66 5.34 -4.32 4.68 -5 4 C-2.6875 1.9375 -2.6875 1.9375 0 0 Z " fill="#275DA4" transform="translate(314,491)"/>
<path d="M0 0 C2.12038635 2.61514317 4.13091744 5.19637616 6 8 C5.01 8 4.02 8 3 8 C1.02 4.535 1.02 4.535 -1 1 C-0.67 0.67 -0.34 0.34 0 0 Z " fill="#5583AC" transform="translate(334,106)"/>
<path d="M0 0 C3.65316671 1.24976756 4.78065836 1.67098753 7 5 C2.25 4.125 2.25 4.125 0 3 C0 2.01 0 1.02 0 0 Z " fill="#5080B0" transform="translate(210,546)"/>
<path d="M0 0 C0.66 0 1.32 0 2 0 C1.38722388 2.96175123 0.74627478 4.38058783 -1 7 C-1.66 7 -2.32 7 -3 7 C-1.125 2.25 -1.125 2.25 0 0 Z " fill="#31679E" transform="translate(445,495)"/>
<path d="M0 0 C0.66 0.33 1.32 0.66 2 1 C0.68 3.31 -0.64 5.62 -2 8 C-2.66 7.34 -3.32 6.68 -4 6 C-2.68 4.02 -1.36 2.04 0 0 Z " fill="#3A6C95" transform="translate(343,455)"/>
<path d="M0 0 C1.485 0.99 1.485 0.99 3 2 C2.625 4.4375 2.625 4.4375 2 7 C1.01 7.495 1.01 7.495 0 8 C0 5.36 0 2.72 0 0 Z " fill="#396F97" transform="translate(378,377)"/>
<path d="M0 0 C0.66 0.33 1.32 0.66 2 1 C2 3.31 2 5.62 2 8 C1.01 8 0.02 8 -1 8 C-0.67 5.36 -0.34 2.72 0 0 Z " fill="#325BA5" transform="translate(320,341)"/>
<path d="M0 0 C0.33 0 0.66 0 1 0 C0.67 2.64 0.34 5.28 0 8 C-0.99 8 -1.98 8 -3 8 C-2.67 6.35 -2.34 4.7 -2 3 C-1.34 3 -0.68 3 0 3 C0 2.01 0 1.02 0 0 Z " fill="#5482AB" transform="translate(180,331)"/>
<path d="M0 0 C1.42944945 2.35438733 2.08661261 3.48032433 1.625 6.25 C1.41875 6.8275 1.2125 7.405 1 8 C0.01 8 -0.98 8 -2 8 C-1.34 5.36 -0.68 2.72 0 0 Z " fill="#2E639D" transform="translate(324,325)"/>
<path d="M0 0 C0.66 0.33 1.32 0.66 2 1 C0.68 3.31 -0.64 5.62 -2 8 C-2.66 7.67 -3.32 7.34 -4 7 C-2.92598892 4.08482708 -2.22189824 2.22189824 0 0 Z " fill="#428FBA" transform="translate(174,231)"/>
</svg>
